<svg xmlns="http://www.w3.org/2000/svg" viewBox="0 0 240 180" width="240" height="180" role="img" aria-labelledby="title"><title id="title">Original illustrative chair furniture asset</title><g stroke-linejoin="round"><path d="M84 119l-10 43m82-43l10 43m-57-43l-2 37m26-37l2 37" stroke="#594c3d" stroke-width="8" stroke-linecap="round"/><path d="M70 63q0-29 50-29t50 29l-9 53H79z" fill="#b6a58a"/><path d="M81 59q0-16 39-16t39 16l-6 40H87z" fill="#e5dac6"/><path d="M72 106q48-14 96 0l-6 24H78z" fill="#c6b395"/><path d="M79 107q41-12 82 0l-8 15H87z" fill="#eee4d3"/><path d="M67 79v38m106-38v38" stroke="#70604a" stroke-width="8" stroke-linecap="round"/></g></svg>
